<svg xmlns="http://www.w3.org/2000/svg" width="600" height="372"><g style="mix-blend-mode:normal;stroke-linejoin:miter;stroke-miterlimit:10;stroke-dasharray:none;stroke-dashoffset:0"><path fill="#fcb103" d="M-85.66 378.83V-6.83h771.32v385.66z"/><path fill="#eca602" d="M420.408 378.83 685.66 113.577V378.83z"/><path fill="#e3a514" d="m-85.66 113.577 265.252 265.254H-85.66Z"/><path fill="#f0a902" d="M-47.095 378.83 338.566-6.83h335.525l-385.66 385.66z"/><path fill="#e2a414" d="M518.541 378.83 132.881-6.83h146.55l385.661 385.66z"/></g><g style="mix-blend-mode:normal;stroke-linejoin:miter;stroke-miterlimit:10;stroke-dasharray:none;stroke-dashoffset:0"><path fill="none" stroke="#000" stroke-opacity=".149" stroke-width="10.785400000000001" d="M146.67 186.54v44.943c0 4.12-3.37 7.49-7.49 7.49H94.2c-4.12 0-7.454-3.37-7.454-7.49l.038-59.925c0-4.12 3.333-7.49 7.453-7.49h29.962Z"/><path fill="#fff" d="M146.67 186.54v44.943c0 4.12-3.37 7.49-7.49 7.49H94.2c-4.12 0-7.454-3.37-7.454-7.49l.038-59.925c0-4.12 3.333-7.49 7.453-7.49h29.962Z"/><path fill="#bf8b11" d="M112.978 230.856v-29.845h7.461v29.845z" data-paper-data="{&quot;noHover&quot;:false,&quot;origItem&quot;:[&quot;Path&quot;,{&quot;applyMatrix&quot;:true,&quot;segments&quot;:[[127.93334,157.21668],[108.33334,157.21668],[108.33334,162.11668],[127.93334,162.11668]],&quot;closed&quot;:true,&quot;fillColor&quot;:[0,0,0,1]}]}"/><path fill="#bf8b11" d="M131.631 204.815h-29.845v-7.461h29.845z" data-paper-data="{&quot;noHover&quot;:false,&quot;origItem&quot;:[&quot;Path&quot;,{&quot;applyMatrix&quot;:true,&quot;segments&quot;:[[127.93334,147.41668],[108.33334,147.41668],[108.33334,152.31668],[127.93334,152.31668]],&quot;closed&quot;:true,&quot;fillColor&quot;:[0,0,0,1]}]}"/><path fill="#fcb103" d="M120.433 190.306v-20.641l20.641 20.641z" data-paper-data="{&quot;noHover&quot;:false,&quot;origItem&quot;:[&quot;Path&quot;,{&quot;applyMatrix&quot;:true,&quot;segments&quot;:[[681.24998,262.5],[612.5,193.75002],[612.5,262.50004]],&quot;closed&quot;:true,&quot;fillColor&quot;:[0,0,0,1]}]}"/><path fill="none" stroke="#000" stroke-opacity=".149" stroke-width="10.785400000000001" d="M147.467 92.643v45.697c0 4.19-3.428 7.617-7.617 7.617H94.115c-4.189 0-7.578-3.428-7.578-7.617l.038-60.93c0-4.188 3.39-7.615 7.578-7.615h30.465z"/><path fill="#fff" d="M147.467 92.643v45.697c0 4.19-3.428 7.617-7.617 7.617H94.115c-4.189 0-7.578-3.428-7.578-7.617l.038-60.93c0-4.188 3.39-7.615 7.578-7.615h30.465z"/><path fill="#bf8b11" stroke="#bf8b11" stroke-width="1.07854" d="M132.625 137.426c-.32 0-.641-.122-.887-.366l-31.297-31.3a1.255 1.255 0 0 1 1.773-1.772l31.298 31.297a1.255 1.255 0 0 1-.887 2.141z"/><path fill="#bf8b11" d="M114.267 110.917a6.897 6.897 0 1 1-13.794 0 6.897 6.897 0 0 1 13.794 0z"/><path fill="#bf8b11" d="M113.31 125.155a6.897 6.897 0 1 1 3.17-13.424 6.897 6.897 0 0 1-3.17 13.424z"/><path fill="#bf8b11" d="M129.316 125.965a6.898 6.898 0 1 1-13.794 0 6.898 6.898 0 0 1 13.794 0z"/><path fill="#bf8b11" stroke="#bf8b11" stroke-width="1.07854" d="M132.676 137.477c-.32 0-.641-.122-.887-.367l-7.68-7.68a1.253 1.253 0 1 1 1.772-1.774l7.682 7.681a1.255 1.255 0 0 1-.887 2.14z"/><path fill="#fcb103" d="M120.773 96.488V75.47l21.018 21.018z" data-paper-data="{&quot;noHover&quot;:false,&quot;origItem&quot;:[&quot;Path&quot;,{&quot;applyMatrix&quot;:true,&quot;segments&quot;:[[81.74375,131.7125],[61.7375,111.70626],[61.7375,131.71251]],&quot;closed&quot;:true,&quot;fillColor&quot;:[0,0,0,1]}]}"/><path fill="none" stroke="#000" stroke-opacity=".149" stroke-width="10.785400000000001" d="M513.463 130.07v72.393c0 6.636-5.43 12.066-12.065 12.066h-72.454c-6.636 0-12.005-5.43-12.005-12.066l.06-96.524c0-6.636 5.37-12.066 12.005-12.066h48.262z"/><path fill="#fff" d="M513.463 130.07v72.393c0 6.636-5.43 12.066-12.065 12.066h-72.454c-6.636 0-12.005-5.43-12.005-12.066l.06-96.524c0-6.636 5.37-12.066 12.005-12.066h48.262z"/><path fill="#bf8b11" fill-rule="evenodd" d="M477.535 177.247c-.016-.516-.144-1.365-.423-2.816-.16-.82-1.013-5-1.246-6.172a410.922 410.922 0 0 1-1.89-10.115c-1.211-6.987-1.147-10.01.57-10.8.827-.38 1.753-.132 3.044.58.685.375 3.61 2.258 3.425 2.144 3.3 2.055 5.732 2.935 8.157 2.561 2.525-.392 4.143-.1 4.759 1.023.576 1.05.025 2.343-1.208 3.607-2.436 2.508-6.577 4.16-9.676 3.347-1.36-.364-2.049-.77-3.938-2.096l-.158-.11c.078.982.437 2.88 1.187 6.293.486 2.21 3.442 15.201 4.363 19.316l.003.02c.874 4.364-3.099 7.817-8.663 7.817-5.444 0-10.529-3.29-11.354-7.492-.877-4.369 3.099-7.833 8.658-7.833a13.872 13.872 0 0 1 4.385.723zm-28.122 9.911c-.017-.526-.15-1.386-.44-2.874-.15-.76-.985-4.86-1.246-6.167a419.456 419.456 0 0 1-1.87-10.043c-1.211-6.988-1.145-10.01.57-10.799.83-.38 1.753-.135 3.044.58.686.375 3.61 2.257 3.425 2.142 3.298 2.055 5.728 2.936 8.15 2.562 2.524-.397 4.144-.106 4.76 1.016.575 1.05.024 2.341-1.205 3.607-2.44 2.51-6.58 4.158-9.675 3.337-1.357-.364-2.045-.768-3.935-2.096l-.157-.108c.078.981.437 2.88 1.187 6.291.486 2.212 3.438 15.206 4.361 19.318l.006.022c.855 4.365-3.118 7.83-8.66 7.83-5.44 0-10.524-3.298-11.368-7.513-.86-4.368 3.117-7.826 8.67-7.826 1.498 0 2.983.248 4.385.721z"/><path fill="#fcb103" d="M471.2 136.137v-33.249l33.248 33.249z" data-paper-data="{&quot;noHover&quot;:false,&quot;origItem&quot;:[&quot;Path&quot;,{&quot;applyMatrix&quot;:true,&quot;segments&quot;:[[442.12499,125.75002],[407.75,91.37503],[407.75,125.75004]],&quot;closed&quot;:true,&quot;fillColor&quot;:[0,0,0,1]}]}"/><path fill="none" stroke="#000" stroke-opacity=".149" stroke-width="21.570800000000002" d="M350.456 292.01c-1.595 2.942-4.857 4.803-8.425 4.803H226.505c-10.812 0-11.92-7.184-7.05-16.676 8.498-16.565 26.047-48.03 26.047-48.03 1.59-2.96 4.857-4.806 8.42-4.806h116.37c7.242 0 11.805 6.788 8.425 12.575z"/><path fill="none" stroke="#000" stroke-opacity=".149" stroke-width="21.570800000000002" d="m242.823 236.834-23.178 42.762c-.242.445-2.063 4.407-2.88 8.019-.658 2.91.565 3.84.148 3.85-.544.013-.64-10.527-.64-11.226 0-11.578-.104-83.401-.104-83.401 0-7.199 6.326-13.034 14.13-13.034h25.563s.758-.006 1.396 0c21.315.233 22.466 17.378 22.466 17.378h63.62c7.801 0 14.13 5.838 14.13 13.034v13.033H259.68c-7.183 0-13.66 3.693-16.856 9.585z"/><path fill="#bf8b11" stroke="#fff" stroke-width="10.785400000000001" d="m242.823 236.834-23.178 42.762c-.242.445-2.063 4.407-2.88 8.019-.658 2.91.565 3.84.148 3.85-.544.013-.64-10.527-.64-11.226 0-11.578-.104-83.401-.104-83.401 0-7.199 6.326-13.034 14.13-13.034h25.563s.758-.006 1.396 0c21.315.233 22.466 17.378 22.466 17.378h63.62c7.801 0 14.13 5.838 14.13 13.034v13.033H259.68c-7.183 0-13.66 3.693-16.856 9.585z"/><path fill="#fff" stroke="#fff" stroke-width="10.785400000000001" d="M350.456 292.01c-1.595 2.942-4.857 4.803-8.425 4.803H226.505c-10.812 0-11.92-7.184-7.05-16.676 8.498-16.565 26.047-48.03 26.047-48.03 1.59-2.96 4.857-4.806 8.42-4.806h116.37c7.242 0 11.805 6.788 8.425 12.575z"/><path fill="none" stroke="#bf8b11" stroke-linecap="round" stroke-width="8.08905" d="m334.035 280.99-102.146-.64"/><path fill="none" stroke="#000" stroke-opacity=".149" stroke-width="10.785400000000001" d="M296.852 236.423c-11.243-19.975-5.925-57.313 14.963-78.67 1.853-1.89 4.93-4.572 7.008-6.119 9.793-7.26 21.06-11.012 33.985-11.298 2.955-.068 8.032.303 11.083.824.757.127 1.38.221 1.38.221.01-.008.016-.86.023-1.9.158-15.334.241-21.305.322-21.65.17-.701.891-1.329 1.631-1.408.649-.058 1.15.156 1.712.758 1.081 1.149 28.528 34.605 28.639 34.907.182.493.186.942.021 1.364-.245.598-29.049 40.668-29.545 41.092-1.04.88-2.509.466-3.017-.86-.11-.302-.102-1.53.12-21.391.017-1.588.011-2.907-.014-2.935-.085-.094-2.481-.626-4.038-.893-2.028-.343-6.167-.64-8.546-.607-2.91.043-6.174.39-8.966.95-1.178.247-3.484.795-3.895.936-.1.031-.711.225-1.367.425-8.638 2.645-17.254 8.09-24.579 15.52-9.395 9.533-12.062 20.763-7.668 47.686z" data-paper-data="{&quot;index&quot;:null}"/><path fill="none" stroke="#000" stroke-opacity=".149" stroke-width="10.785400000000001" d="M293.015 190.818c2.13-32.353-11.524-64.305-35.48-78.728-11.823-6.235-26.112-2.988-30.41-1.624-4.325 1.373-12.825 3.918-19.42 9.096-1.242.978-3.092 2.59-3.122 2.712-.009.037.616 1.2 1.388 2.586 9.677 17.345 10.27 18.421 10.317 18.739.187 1.408-.905 2.473-2.24 2.195-.638-.135-45.077-21.593-45.578-22-.346-.293-.557-.69-.633-1.21-.047-.318 8.098-42.819 8.5-44.345.207-.797.545-1.224 1.142-1.483.688-.283 1.623-.076 2.106.458.236.266 3.16 5.472 10.618 18.87.503.911.916 1.656.928 1.66 0 0 .503-.38 1.107-.854 2.432-1.914 6.716-4.664 9.345-6.015 11.493-5.919 23.185-8.002 35.256-6.297 2.564.367 6.548 1.254 9.078 2.03 28.55 8.795 57.637 40.554 59.01 88 0 0-1.256 15.861-3.203 19.457-1.14 2.103-5.384-3.244-5.384-3.244z" data-paper-data="{&quot;index&quot;:null}"/><path fill="#fff" d="M296.852 236.423c-11.243-19.975-5.925-57.313 14.963-78.67 1.853-1.89 4.93-4.572 7.008-6.119 9.793-7.26 21.06-11.012 33.985-11.298 2.955-.068 8.032.303 11.083.824.757.127 1.38.221 1.38.221.01-.008.016-.86.023-1.9.158-15.334.241-21.305.322-21.65.17-.701.891-1.329 1.631-1.408.649-.058 1.15.156 1.712.758 1.081 1.149 28.528 34.605 28.639 34.907.182.493.186.942.021 1.364-.245.598-29.049 40.668-29.545 41.092-1.04.88-2.509.466-3.017-.86-.11-.302-.102-1.53.12-21.391.017-1.588.011-2.907-.014-2.935-.085-.094-2.481-.626-4.038-.893-2.028-.343-6.167-.64-8.546-.607-2.91.043-6.174.39-8.966.95-1.178.247-3.484.795-3.895.936-.1.031-.711.225-1.367.425-8.638 2.645-17.254 8.09-24.579 15.52-9.395 9.533-12.062 20.763-7.668 47.686z" data-paper-data="{&quot;index&quot;:null}"/><path fill="#fff" d="M292.085 192.796c2.129-32.353-10.594-66.283-34.55-80.706-11.823-6.235-26.112-2.988-30.41-1.624-4.325 1.373-12.825 3.918-19.42 9.096-1.242.978-3.092 2.59-3.122 2.712-.009.037.615 1.2 1.388 2.586 9.677 17.345 10.27 18.421 10.317 18.739.187 1.408-.905 2.473-2.24 2.195-.638-.135-45.077-21.593-45.578-22-.346-.293-.557-.69-.633-1.21-.047-.318 8.098-42.819 8.5-44.344.207-.798.545-1.225 1.142-1.484.688-.283 1.623-.076 2.106.458.236.266 3.16 5.472 10.618 18.87.503.911.916 1.656.928 1.66 0 0 .503-.38 1.107-.854 2.432-1.914 6.716-4.664 9.345-6.015 11.493-5.919 23.185-8.002 35.256-6.297 2.564.367 6.548 1.254 9.078 2.03 28.55 8.795 57.637 40.554 59.01 88 0 0-1.256 15.861-3.203 19.457-1.14 2.103-10.27 10.83-10.27 10.83z" data-paper-data="{&quot;index&quot;:null}"/><path fill="none" stroke="#fff" stroke-linecap="round" stroke-width="43.141600000000004" d="m335.477 242.83-68.099.024"/><path fill="none" stroke="#bf8b11" stroke-linecap="round" stroke-width="8.08905" d="m260.679 242.662 102.146.64M245.324 261.523l102.146.64"/></g></svg>